<svg width="512" height="512" viewBox="0 0 512 512" fill="none" xmlns="http://www.w3.org/2000/svg">
<g clip-path="url(#clip0_8_6)">
<path d="M393.341 114.924L347.514 114.924C345.496 114.924 343.677 116.136 342.9 117.998L233.057 381.139C231.682 384.432 234.102 388.065 237.671 388.065L458.199 388.065" stroke="#00E788" stroke-width="40" stroke-linecap="square"/>
<path d="M53 93.9452L33 93.9452L33 133.945L53 133.945L53 93.9452ZM119.682 400.134C115.418 410.324 120.223 422.04 130.412 426.304C140.602 430.567 152.319 425.763 156.582 415.573L119.682 400.134ZM53 133.945L253.589 133.945L253.589 93.9452L53 93.9452L53 133.945ZM239.751 113.156L119.682 400.134L156.582 415.573L276.651 128.594L239.751 113.156ZM253.589 133.945C242.876 133.945 235.616 123.039 239.751 113.156L276.651 128.594C283.543 112.123 271.444 93.9452 253.589 93.9452L253.589 133.945Z" fill="#00E788"/>
</g>
<defs>
<clipPath id="clip0_8_6">
<rect width="512" height="512" fill="white"/>
</clipPath>
</defs>
</svg>
